<?xml version="1.0" encoding="utf-8"?>
<!-- Generator: Adobe Illustrator 17.0.2, SVG Export Plug-In . SVG Version: 6.00 Build 0)  -->
<!DOCTYPE svg PUBLIC "-//W3C//DTD SVG 1.1//EN" "http://www.w3.org/Graphics/SVG/1.1/DTD/svg11.dtd">
<svg version="1.1" xmlns="http://www.w3.org/2000/svg" xmlns:xlink="http://www.w3.org/1999/xlink" x="0px" y="0px" width="30px"
	 height="390px" viewBox="0 0 30 390" enable-background="new 0 0 30 390" xml:space="preserve">
<g id="Layer_1">
</g>
<g id="Layer_2">
	<path fill="#6D7E6F" d="M14.587,12.523c-1.291-2.295-2.671-4.167-2.773-4.303c-2.082,0.984-3.638,2.902-4.122,5.215
		C7.888,13.438,11.001,13.476,14.587,12.523L14.587,12.523z M15.517,15.031c0.099-0.032,0.196-0.06,0.295-0.089
		c-0.187-0.425-0.393-0.85-0.606-1.269c-3.846,1.15-7.537,1.068-7.668,1.064c-0.003,0.079-0.006,0.157-0.006,0.237
		c0,1.921,0.726,3.67,1.916,4.994c-0.002-0.002-0.006-0.006-0.006-0.006s2.044-3.625,6.074-4.93V15.031z M10.409,20.862l0.002-0.003
		c-0.056-0.044-0.115-0.082-0.169-0.129C10.341,20.81,10.409,20.861,10.409,20.862L10.409,20.862z M13.211,7.723
		c-0.006,0.002-0.013,0.003-0.019,0.004C13.202,7.725,13.21,7.724,13.211,7.723L13.211,7.723z M19.933,9.37
		c-1.316-1.159-3.041-1.863-4.932-1.863c-0.608,0-1.196,0.074-1.76,0.211c0.113,0.15,1.515,2.013,2.793,4.357
		C18.849,11.019,19.914,9.4,19.933,9.37z M15.001,23.72c-4.831,0-8.746-3.916-8.746-8.745s3.916-8.745,8.746-8.745
		c4.83,0,8.745,3.916,8.745,8.745S19.831,23.72,15.001,23.72z M16.271,16.196c-4.383,1.527-5.831,4.6-5.859,4.662
		c1.266,0.989,2.857,1.584,4.589,1.584c1.034,0,2.019-0.21,2.914-0.59c-0.11-0.655-0.545-2.943-1.595-5.673
		C16.304,16.185,16.286,16.191,16.271,16.196z M16.606,13.187c0.175,0.357,0.342,0.718,0.496,1.084
		c0.056,0.129,0.108,0.257,0.162,0.386c2.58-0.324,5.119,0.226,5.202,0.244c-0.017-1.772-0.65-3.397-1.698-4.669
		C20.753,10.253,19.555,11.983,16.606,13.187z M17.719,15.835c0.981,2.695,1.378,4.888,1.454,5.335
		c1.678-1.132,2.869-2.928,3.2-5.01C22.226,16.111,20.134,15.448,17.719,15.835L17.719,15.835z"/>
</g>
<g id="Layer_3">
	<path fill="#6D7E6F" d="M19.844,39.291h-2.767c-0.327,0-0.693,0.43-0.693,1.007v1.998h3.459v2.848h-3.459v8.554h-3.267v-8.553
		h-2.961v-2.849h2.961V40.62c0-2.403,1.668-4.359,3.958-4.359h2.767L19.844,39.291L19.844,39.291z"/>
</g>
<g id="Layer_4">
	<path fill="#6D7E6F" d="M10.085,78.85c-2.098,0-3.799-1.733-3.799-3.873s1.7-3.873,3.799-3.873c2.098,0,3.799,1.733,3.799,3.873
		C13.884,77.117,12.183,78.85,10.085,78.85z M19.915,78.85c-2.099,0-3.801-1.733-3.801-3.873s1.702-3.873,3.801-3.873
		c2.097,0,3.799,1.733,3.799,3.873C23.714,77.117,22.012,78.85,19.915,78.85z"/>
</g>
<g id="Layer_5">
	<path fill="#6D7E6F" d="M18.02,106.254c-0.682,0-1.234,0.765-1.234,1.708c0,0.944,0.553,1.709,1.234,1.709
		c0.682,0,1.234-0.765,1.234-1.709C19.253,107.018,18.7,106.254,18.02,106.254z M22.317,101.807
		c0.141-0.346,0.147-2.317-0.602-4.202c0,0-1.72,0.188-4.322,1.974c-0.546-0.151-1.47-0.226-2.393-0.226
		c-0.924,0-1.847,0.076-2.393,0.226c-2.601-1.786-4.32-1.974-4.32-1.974c-0.749,1.886-0.744,3.855-0.602,4.202
		c-0.881,0.957-1.42,2.106-1.42,3.675c0,6.823,5.661,6.932,7.089,6.932c0.323,0,0.968,0.001,1.646,0.002
		c0.679-0.001,1.323-0.002,1.644-0.002c1.43,0,7.089-0.11,7.089-6.932C23.735,103.912,23.197,102.763,22.317,101.807L22.317,101.807
		z M15.027,111.575h-0.052c-3.581,0-6.371-0.427-6.371-3.908c0-0.834,0.295-1.608,0.993-2.25c1.167-1.07,3.139-0.503,5.378-0.503
		c0.009,0,0.018,0,0.027-0.001c0.009,0,0.018,0.001,0.025,0.001c2.239,0,4.212-0.567,5.378,0.503
		c0.698,0.642,0.993,1.415,0.993,2.25C21.397,111.148,18.61,111.575,15.027,111.575z M11.982,106.254
		c-0.682,0-1.234,0.765-1.234,1.708c0,0.944,0.553,1.709,1.234,1.709c0.682,0,1.234-0.765,1.234-1.709
		S12.663,106.254,11.982,106.254z"/>
</g>
<g id="Layer_6">
	<path fill="#6D7E6F" d="M7.084,130.654c0,1.476,0.494,2.542,1.465,3.168c0.796,0.513,1.72,0.59,2.2,0.59
		c0.117,0,0.21-0.005,0.275-0.009c0,0-0.152,0.992,0.583,1.973l-0.034-0.001c-1.274,0-5.43,0.267-5.43,3.683
		c0,3.476,3.817,3.652,4.582,3.652c0.06,0,0.095-0.001,0.095-0.001c0.009,0,0.063,0.002,0.156,0.002
		c0.491,0,1.761-0.061,2.941-0.636c1.53-0.742,2.307-2.035,2.307-3.84c0-1.744-1.182-2.782-2.046-3.542
		c-0.527-0.463-0.982-0.862-0.982-1.251c0-0.395,0.332-0.693,0.753-1.069c0.68-0.609,1.322-1.476,1.322-3.114
		c0-1.441-0.187-2.408-1.338-3.021c0.121-0.061,0.544-0.105,0.755-0.135c0.623-0.085,1.536-0.182,1.536-0.691v-0.098H11.68
		C11.634,126.315,7.084,126.485,7.084,130.654L7.084,130.654z M14.421,139.562c0.087,1.39-1.102,2.416-2.887,2.545
		c-1.813,0.134-3.307-0.683-3.393-2.072c-0.042-0.667,0.251-1.32,0.826-1.842c0.583-0.527,1.382-0.852,2.253-0.917
		c0.103-0.006,0.204-0.011,0.306-0.011C13.202,137.265,14.339,138.252,14.421,139.562L14.421,139.562z M13.233,129.702
		c0.445,1.568-0.227,3.208-1.3,3.511c-0.123,0.034-0.251,0.053-0.38,0.053c-0.983,0-1.957-0.994-2.317-2.364
		c-0.202-0.77-0.186-1.442,0.045-2.089c0.227-0.636,0.636-1.067,1.15-1.211c0.123-0.036,0.252-0.053,0.38-0.053
		C11.998,127.548,12.761,128.04,13.233,129.702z M20.892,133.118v-2.965h-1.878v2.965h-2.965v1.878h2.965v2.965h1.878v-2.965h2.965
		v-1.878C23.857,133.118,20.892,133.118,20.892,133.118z"/>
</g>
<g id="Layer_7">
	<path fill="#6D7E6F" d="M20.26,164.982c0,2.905-2.356,5.26-5.26,5.26c-2.905,0-5.26-2.355-5.26-5.26
		c0-0.346,0.034-0.684,0.099-1.012H6.301v6.992c0,1.501,1.216,2.719,2.719,2.719h11.96c1.501,0,2.719-1.217,2.719-2.719v-6.992
		h-3.537C20.226,164.298,20.26,164.636,20.26,164.982z M20.98,156.283H9.02c-1.502,0-2.719,1.218-2.719,2.719v2.945h4.404
		c0.951-1.345,2.521-2.225,4.295-2.225s3.343,0.88,4.295,2.225h4.404v-2.945C23.699,157.501,22.481,156.283,20.98,156.283z
		 M22.31,159.641c0,0.268-0.218,0.486-0.486,0.486h-1.456c-0.267,0-0.486-0.218-0.486-0.486v-1.457c0-0.268,0.219-0.486,0.486-0.486
		h1.456c0.268,0,0.486,0.218,0.486,0.486V159.641z M18.237,164.982c0-1.788-1.45-3.237-3.237-3.237s-3.237,1.448-3.237,3.237
		s1.45,3.237,3.237,3.237S18.237,166.77,18.237,164.982z"/>
</g>
<g id="Layer_8">
	<path fill="#6D7E6F" d="M10.23,188.3c0,1.025-0.757,1.855-2.001,1.855c-1.171,0-1.928-0.83-1.928-1.855
		c0-1.049,0.781-1.855,1.977-1.855S10.206,187.251,10.23,188.3z M6.399,203.553V191.62h3.709v11.933
		C10.109,203.553,6.399,203.553,6.399,203.553z M12.329,195.427c0-1.488-0.049-2.732-0.098-3.807h3.221l0.172,1.66h0.073
		c0.488-0.781,1.684-1.928,3.685-1.928c2.439,0,4.27,1.635,4.27,5.149v7.053h-3.709v-6.613c0-1.538-0.538-2.587-1.88-2.587
		c-1.025,0-1.634,0.708-1.903,1.391c-0.098,0.244-0.122,0.585-0.122,0.927v6.882H12.33L12.329,195.427L12.329,195.427z"/>
</g>
<g id="Layer_9">
	<path fill="#6D7E6F" d="M13.82,227.723c-0.447,2.347-0.994,4.598-2.614,5.773c-0.5-3.548,0.734-6.212,1.307-9.041
		c-0.977-1.645,0.118-4.954,2.179-4.138c2.536,1.003-2.196,6.115,0.98,6.753c3.317,0.667,4.671-5.754,2.614-7.842
		c-2.972-3.016-8.651-0.07-7.952,4.246c0.17,1.055,1.26,1.376,0.435,2.832c-1.902-0.421-2.469-1.921-2.396-3.921
		c0.118-3.273,2.941-5.564,5.773-5.881c3.582-0.401,6.943,1.314,7.406,4.683c0.523,3.802-1.616,7.92-5.447,7.624
		C15.07,228.73,14.634,228.217,13.82,227.723L13.82,227.723z"/>
</g>
<g id="Layer_10">
	<path fill="#6D7E6F" d="M21.501,257.798c-0.723-0.51-1.625-0.473-2.138,0.255s-4.1,5.228-9.976,3.359
		c0.221,0.193,0.455,0.377,0.7,0.549c3.855,2.714,9.18,1.79,11.895-2.066C22.494,259.168,22.223,258.306,21.501,257.798
		L21.501,257.798z M10.16,257.223c-0.375-0.808-2.477-6.165,2.079-10.319c-0.278,0.096-0.553,0.205-0.825,0.331
		c-4.279,1.981-6.14,7.056-4.159,11.334c0.374,0.809,1.256,1.006,2.057,0.635C10.113,258.832,10.533,258.031,10.16,257.223
		L10.16,257.223z M15.767,246.478c-0.887-0.08-1.498,0.585-1.578,1.466c-0.079,0.881,0.403,1.643,1.291,1.723
		c0.888,0.08,6.576,0.937,7.897,6.96c0.058-0.288,0.098-0.582,0.126-0.881C23.925,251.051,20.462,246.901,15.767,246.478
		L15.767,246.478z M12.115,255.487c-0.244,0.576-0.284,1.126-0.087,1.228c0.135,0.071,0.347-0.091,0.546-0.386
		c0.079,0.323,0.273,0.613,0.552,0.848c-0.291,0.108-0.483,0.284-0.483,0.483c0,0.328,0.516,0.593,1.151,0.593
		c0.573,0,1.049-0.215,1.137-0.498c0.023,0,0.114,0,0.136,0c0.089,0.283,0.563,0.498,1.138,0.498c0.637,0,1.151-0.265,1.151-0.593
		c0-0.2-0.19-0.375-0.483-0.483c0.278-0.234,0.473-0.525,0.551-0.848c0.2,0.295,0.41,0.457,0.547,0.386
		c0.197-0.102,0.158-0.651-0.088-1.228c-0.192-0.451-0.453-0.785-0.651-0.859c0.003-0.028,0.005-0.058,0.005-0.087
		c0-0.174-0.049-0.336-0.133-0.468c0.002-0.01,0.002-0.02,0.002-0.031c0-0.08-0.019-0.156-0.052-0.221
		c-0.05-1.175-0.816-2.11-2.055-2.11s-2.005,0.934-2.056,2.11c-0.032,0.066-0.052,0.141-0.052,0.222c0,0.01,0,0.02,0.001,0.031
		c-0.082,0.131-0.131,0.293-0.131,0.468c0,0.03,0.002,0.059,0.004,0.087C12.568,254.703,12.306,255.036,12.115,255.487
		L12.115,255.487z"/>
</g>
<g id="Layer_11">
	<path fill="#6D7E6F" d="M13.605,276.473c-4.052,0.68-7.142,4.203-7.142,8.449c0,2.111,0.764,4.042,2.03,5.533
		c3-1.452,5.097-4.736,5.113-8.56L13.605,276.473L13.605,276.473z M15.032,287.085c-0.534,2.211-2.129,4.099-4.115,5.355
		c1.221,0.67,2.623,1.051,4.114,1.051c1.492,0,2.893-0.381,4.115-1.052C17.159,291.183,15.566,289.295,15.032,287.085z
		 M16.461,281.855c0,3.841,2.101,7.144,5.111,8.601c1.265-1.494,2.03-3.424,2.03-5.533c0-4.246-3.088-7.768-7.141-8.448
		C16.461,276.474,16.461,281.855,16.461,281.855z"/>
</g>
<g id="Layer_12">
	<path fill="#6D7E6F" d="M19.658,315.069c-0.27-0.082-0.457-0.139-0.314-0.501c0.307-0.786,0.339-1.465,0.006-1.95
		c-0.625-0.908-2.333-0.859-4.29-0.024c0-0.001-0.615,0.273-0.458-0.224c0.301-0.985,0.256-1.81-0.213-2.287
		c-1.062-1.082-3.887,0.043-6.311,2.507c-1.814,1.846-2.867,3.804-2.867,5.497c0,3.237,4.078,5.403,8.069,5.403
		c5.231,0,8.71-3.291,8.71-5.747C21.99,316.26,20.762,315.418,19.658,315.069L19.658,315.069z M13.289,322.039
		c-3.184,0.315-5.932-1.131-6.139-3.234c-0.207-2.102,2.207-4.061,5.391-4.378c3.185-0.317,5.933,1.13,6.139,3.232
		C18.887,319.76,16.473,321.722,13.289,322.039z M24.853,312.432c-0.002-3.269-2.653-5.919-5.922-5.919
		c-0.382,0-0.691,0.309-0.691,0.691s0.309,0.69,0.691,0.69c2.507,0,4.54,2.033,4.54,4.541c0,0.382,0.309,0.691,0.691,0.691
		s0.691-0.309,0.691-0.691C24.853,312.435,24.853,312.433,24.853,312.432z M22.107,312.332c-0.316-1.542-1.532-2.757-3.073-3.073
		c-0.373-0.076-0.74,0.164-0.815,0.538c-0.077,0.373,0.164,0.738,0.537,0.815c1.003,0.205,1.792,0.995,1.997,1.997
		c0.077,0.374,0.442,0.614,0.816,0.538C21.942,313.07,22.184,312.704,22.107,312.332L22.107,312.332z M11.656,316.485
		c-1.282,0.257-2.148,1.333-1.933,2.402c0.214,1.069,1.428,1.727,2.711,1.467c1.282-0.257,2.148-1.333,1.933-2.402
		C14.153,316.885,12.939,316.228,11.656,316.485z"/>
</g>
<g id="Layer_13">
	<path fill="#6D7E6F" d="M24.785,338.894c-0.721,0.32-1.494,0.535-2.307,0.633c0.83-0.496,1.467-1.283,1.766-2.221
		c-0.776,0.459-1.634,0.794-2.548,0.974c-0.733-0.781-1.776-1.268-2.931-1.268c-2.217,0-4.015,1.797-4.015,4.014
		c0,0.315,0.035,0.621,0.104,0.915c-3.336-0.167-6.296-1.766-8.275-4.195c-0.347,0.592-0.546,1.283-0.546,2.019
		c0,1.393,0.709,2.622,1.787,3.342c-0.659-0.021-1.277-0.201-1.819-0.502c0,0.017,0,0.033,0,0.05c0,1.946,1.385,3.567,3.22,3.937
		c-0.336,0.091-0.691,0.14-1.058,0.14c-0.259,0-0.51-0.025-0.755-0.071c0.511,1.595,1.995,2.755,3.75,2.787
		c-1.374,1.078-3.105,1.719-4.986,1.719c-0.325,0-0.643-0.019-0.957-0.057c1.776,1.139,3.886,1.804,6.154,1.804
		c7.385,0,11.423-6.118,11.423-11.423c0-0.174-0.004-0.347-0.011-0.519C23.566,340.407,24.245,339.7,24.785,338.894z"/>
</g>
<g id="Layer_14">
	<g id="Layer_1_1_">
		<path fill="#6D7E6F" d="M22.553,366.347c0.596,0,1.079,0.483,1.079,1.079v15.107c0,0.596-0.483,1.079-1.079,1.079H7.447
			c-0.596,0-1.079-0.483-1.079-1.079v-15.107c0-0.596,0.483-1.079,1.079-1.079H22.553z M8.895,368.866v1.392H20.71v-1.392H8.895z
			 M9.643,371.414v5.679h1.016l1.234,2.591h-3.35v1.366h12.483v-1.366h-3.436l1.25-2.591h1.106v-5.679H9.643z M18.147,372.811v2.933
			H11.37v-2.933H18.147z M16.07,379.683h-2.624l-1.22-2.591h5.094L16.07,379.683z"/>
	</g>
</g>
</svg>
