<svg xmlns="http://www.w3.org/2000/svg" width="30" height="390" viewBox="0 0 30 390"><path fill="#6D7E6F" d="M14.587 12.523a44.736 44.736 0 0 0-2.773-4.303 7.478 7.478 0 0 0-4.122 5.215c.196.003 3.309.041 6.895-.912zm.93 2.508c.099-.032.196-.06.295-.089-.187-.425-.393-.85-.606-1.269-3.846 1.15-7.537 1.068-7.668 1.064-.003.079-.006.157-.006.237 0 1.921.726 3.67 1.916 4.994l-.006-.006s2.044-3.625 6.074-4.93v-.001zm-5.108 5.831l.002-.003c-.056-.044-.115-.082-.169-.129.099.08.167.131.167.132zm2.802-13.139l-.019.004.019-.004zm6.722 1.647a7.436 7.436 0 0 0-6.692-1.652 38.32 38.32 0 0 1 2.793 4.357c2.815-1.056 3.88-2.675 3.899-2.705zm-4.932 14.35A8.746 8.746 0 1 1 15 6.229a8.746 8.746 0 0 1 .001 17.491zm1.27-7.524c-4.383 1.527-5.831 4.6-5.859 4.662a7.43 7.43 0 0 0 4.589 1.584 7.44 7.44 0 0 0 2.914-.59c-.11-.655-.545-2.943-1.595-5.673l-.049.017zm.335-3.009c.175.357.342.718.496 1.084.056.129.108.257.162.386 2.58-.324 5.119.226 5.202.244a7.43 7.43 0 0 0-1.698-4.669c-.015.021-1.213 1.751-4.162 2.955zm1.113 2.648c.981 2.695 1.378 4.888 1.454 5.335a7.462 7.462 0 0 0 3.2-5.01c-.147-.049-2.239-.712-4.654-.325zm2.125 23.456h-2.767c-.327 0-.693.43-.693 1.007v1.998h3.459v2.848h-3.459v8.554h-3.267v-8.553h-2.961v-2.849h2.961V40.62c0-2.403 1.668-4.359 3.958-4.359h2.767l.002 3.03zM10.085 78.85c-2.098 0-3.799-1.733-3.799-3.873s1.7-3.873 3.799-3.873c2.098 0 3.799 1.733 3.799 3.873s-1.701 3.873-3.799 3.873zm9.83 0c-2.099 0-3.801-1.733-3.801-3.873s1.702-3.873 3.801-3.873c2.097 0 3.799 1.733 3.799 3.873s-1.702 3.873-3.799 3.873zm-1.895 27.404c-.682 0-1.234.765-1.234 1.708 0 .944.553 1.709 1.234 1.709.682 0 1.234-.765 1.234-1.709-.001-.944-.554-1.708-1.234-1.708zm4.297-4.447c.141-.346.147-2.317-.602-4.202 0 0-1.72.188-4.322 1.974-.546-.151-1.47-.226-2.393-.226-.924 0-1.847.076-2.393.226-2.601-1.786-4.32-1.974-4.32-1.974-.749 1.886-.744 3.855-.602 4.202-.881.957-1.42 2.106-1.42 3.675 0 6.823 5.661 6.932 7.089 6.932l1.646.002 1.644-.002c1.43 0 7.089-.11 7.089-6.932.002-1.57-.536-2.719-1.416-3.675zm-7.29 9.768h-.052c-3.581 0-6.371-.427-6.371-3.908 0-.834.295-1.608.993-2.25 1.167-1.07 3.139-.503 5.378-.503l.027-.001.025.001c2.239 0 4.212-.567 5.378.503.698.642.993 1.415.993 2.25-.001 3.481-2.788 3.908-6.371 3.908zm-3.045-5.321c-.682 0-1.234.765-1.234 1.708 0 .944.553 1.709 1.234 1.709.682 0 1.234-.765 1.234-1.709s-.553-1.708-1.234-1.708zm-4.898 24.4c0 1.476.494 2.542 1.465 3.168.796.513 1.72.59 2.2.59.117 0 .21-.005.275-.009 0 0-.152.992.583 1.973l-.034-.001c-1.274 0-5.43.267-5.43 3.683 0 3.476 3.817 3.652 4.582 3.652l.095-.001c.009 0 .063.002.156.002.491 0 1.761-.061 2.941-.636 1.53-.742 2.307-2.035 2.307-3.84 0-1.744-1.182-2.782-2.046-3.542-.527-.463-.982-.862-.982-1.251 0-.395.332-.693.753-1.069.68-.609 1.322-1.476 1.322-3.114 0-1.441-.187-2.408-1.338-3.021.121-.061.544-.105.755-.135.623-.085 1.536-.182 1.536-.691v-.098H11.68c-.046.001-4.596.171-4.596 4.34zm7.337 8.908c.087 1.39-1.102 2.416-2.887 2.545-1.813.134-3.307-.683-3.393-2.072-.042-.667.251-1.32.826-1.842.583-.527 1.382-.852 2.253-.917.103-.006.204-.011.306-.011 1.676 0 2.813.987 2.895 2.297zm-1.188-9.86c.445 1.568-.227 3.208-1.3 3.511a1.429 1.429 0 0 1-.38.053c-.983 0-1.957-.994-2.317-2.364-.202-.77-.186-1.442.045-2.089.227-.636.636-1.067 1.15-1.211.123-.036.252-.053.38-.053 1.187-.001 1.95.491 2.422 2.153zm7.659 3.416v-2.965h-1.878v2.965h-2.965v1.878h2.965v2.965h1.878v-2.965h2.965v-1.878h-2.965zm-.632 31.864a5.26 5.26 0 1 1-10.421-1.012H6.301v6.992a2.719 2.719 0 0 0 2.719 2.719h11.96a2.72 2.72 0 0 0 2.719-2.719v-6.992h-3.537c.064.328.098.666.098 1.012zm.72-8.699H9.02a2.72 2.72 0 0 0-2.719 2.719v2.945h4.404c.951-1.345 2.521-2.225 4.295-2.225s3.343.88 4.295 2.225h4.404v-2.945a2.72 2.72 0 0 0-2.719-2.719zm1.33 3.358a.487.487 0 0 1-.486.486h-1.456a.487.487 0 0 1-.486-.486v-1.457c0-.268.219-.486.486-.486h1.456c.268 0 .486.218.486.486v1.457zm-4.073 5.341a3.237 3.237 0 1 0-6.475 0 3.237 3.237 0 0 0 6.475 0zM10.23 188.3c0 1.025-.757 1.855-2.001 1.855-1.171 0-1.928-.83-1.928-1.855 0-1.049.781-1.855 1.977-1.855s1.928.806 1.952 1.855zm-3.831 15.253V191.62h3.709v11.933H6.399zm5.93-8.126c0-1.488-.049-2.732-.098-3.807h3.221l.172 1.66h.073c.488-.781 1.684-1.928 3.685-1.928 2.439 0 4.27 1.635 4.27 5.149v7.053h-3.709v-6.613c0-1.538-.538-2.587-1.88-2.587-1.025 0-1.634.708-1.903 1.391-.098.244-.122.585-.122.927v6.882H12.33l-.001-8.127zm1.491 32.296c-.447 2.347-.994 4.598-2.614 5.773-.5-3.548.734-6.212 1.307-9.041-.977-1.645.118-4.954 2.179-4.138 2.536 1.003-2.196 6.115.98 6.753 3.317.667 4.671-5.754 2.614-7.842-2.972-3.016-8.651-.07-7.952 4.246.17 1.055 1.26 1.376.435 2.832-1.902-.421-2.469-1.921-2.396-3.921.118-3.273 2.941-5.564 5.773-5.881 3.582-.401 6.943 1.314 7.406 4.683.523 3.802-1.616 7.92-5.447 7.624-1.035-.081-1.471-.594-2.285-1.088zm7.681 30.075c-.723-.51-1.625-.473-2.138.255s-4.1 5.228-9.976 3.359a8.537 8.537 0 0 0 12.595-1.517c.512-.727.241-1.589-.481-2.097zm-11.341-.575c-.375-.808-2.477-6.165 2.079-10.319a8.537 8.537 0 0 0-4.984 11.665c.374.809 1.256 1.006 2.057.635.801-.372 1.221-1.173.848-1.981zm5.607-10.745c-.887-.08-1.498.585-1.578 1.466-.079.881.403 1.643 1.291 1.723.888.08 6.576.937 7.897 6.96a8.538 8.538 0 0 0-7.61-10.149zm-3.652 9.009c-.244.576-.284 1.126-.087 1.228.135.071.347-.091.546-.386.079.323.273.613.552.848-.291.108-.483.284-.483.483 0 .328.516.593 1.151.593.573 0 1.049-.215 1.137-.498h.136c.089.283.563.498 1.138.498.637 0 1.151-.265 1.151-.593 0-.2-.19-.375-.483-.483.278-.234.473-.525.551-.848.2.295.41.457.547.386.197-.102.158-.651-.088-1.228-.192-.451-.453-.785-.651-.859a.872.872 0 0 0-.128-.555c.002-.01.002-.02.002-.031a.49.49 0 0 0-.052-.221c-.05-1.175-.816-2.11-2.055-2.11s-2.005.934-2.056 2.11a.507.507 0 0 0-.051.253.883.883 0 0 0-.127.555c-.197.074-.459.407-.65.858zm1.49 20.986c-4.052.68-7.142 4.203-7.142 8.449 0 2.111.764 4.042 2.03 5.533 3-1.452 5.097-4.736 5.113-8.56l-.001-5.422zm1.427 10.612c-.534 2.211-2.129 4.099-4.115 5.355a8.526 8.526 0 0 0 4.114 1.051 8.52 8.52 0 0 0 4.115-1.052c-1.987-1.256-3.58-3.144-4.114-5.354zm1.429-5.23c0 3.841 2.101 7.144 5.111 8.601a8.534 8.534 0 0 0 2.03-5.533c0-4.246-3.088-7.768-7.141-8.448v5.38zm3.197 33.214c-.27-.082-.457-.139-.314-.501.307-.786.339-1.465.006-1.95-.625-.908-2.333-.859-4.29-.024 0-.001-.615.273-.458-.224.301-.985.256-1.81-.213-2.287-1.062-1.082-3.887.043-6.311 2.507-1.814 1.846-2.867 3.804-2.867 5.497 0 3.237 4.078 5.403 8.069 5.403 5.231 0 8.71-3.291 8.71-5.747 0-1.483-1.228-2.325-2.332-2.674zm-6.369 6.97c-3.184.315-5.932-1.131-6.139-3.234-.207-2.102 2.207-4.061 5.391-4.378 3.185-.317 5.933 1.13 6.139 3.232.207 2.101-2.207 4.063-5.391 4.38zm11.564-9.607a5.923 5.923 0 0 0-5.922-5.919.69.69 0 1 0 0 1.381 4.54 4.54 0 0 1 4.54 4.541.69.69 0 1 0 1.382 0v-.003zm-2.746-.1a3.957 3.957 0 0 0-3.073-3.073.69.69 0 0 0-.278 1.353 2.569 2.569 0 0 1 1.997 1.997.692.692 0 0 0 1.354-.277zm-10.451 4.153c-1.282.257-2.148 1.333-1.933 2.402.214 1.069 1.428 1.727 2.711 1.467 1.282-.257 2.148-1.333 1.933-2.402-.214-1.067-1.428-1.724-2.711-1.467zm13.129 22.409a8.045 8.045 0 0 1-2.307.633 4.015 4.015 0 0 0 1.766-2.221 8.062 8.062 0 0 1-2.548.974 4.015 4.015 0 0 0-6.842 3.661 11.396 11.396 0 0 1-8.275-4.195 4.012 4.012 0 0 0 1.241 5.361 3.998 3.998 0 0 1-1.819-.502v.05a4.019 4.019 0 0 0 3.22 3.937 4.044 4.044 0 0 1-1.813.069 4.019 4.019 0 0 0 3.75 2.787 8.048 8.048 0 0 1-5.943 1.662 11.36 11.36 0 0 0 6.154 1.804c7.385 0 11.423-6.118 11.423-11.423 0-.174-.004-.347-.011-.519a8.148 8.148 0 0 0 2.004-2.078zm-2.232 27.453c.596 0 1.079.483 1.079 1.079v15.107c0 .596-.483 1.079-1.079 1.079H7.447a1.079 1.079 0 0 1-1.079-1.079v-15.107c0-.596.483-1.079 1.079-1.079h15.106zm-13.658 2.519v1.392H20.71v-1.392H8.895zm.748 2.548v5.679h1.016l1.234 2.591h-3.35v1.366h12.483v-1.366H17.59l1.25-2.591h1.106v-5.679H9.643zm8.504 1.397v2.933H11.37v-2.933h6.777zm-2.077 6.872h-2.624l-1.22-2.591h5.094l-1.25 2.591z"/></svg>